<svg width="35" height="41" viewBox="0 0 35 41" fill="none" xmlns="http://www.w3.org/2000/svg">
<path d="M33.6169 10.2327C32.7325 8.23317 31.4671 6.44095 29.8582 4.90212C28.2493 3.3633 26.3817 2.1608 24.2977 1.31768C22.1431 0.442297 19.8569 0 17.5 0C15.1431 0 12.8569 0.442297 10.7023 1.31307C8.61828 2.1562 6.75067 3.3633 5.1418 4.89752C3.53293 6.43634 2.26747 8.23317 1.38306 10.2281C0.465726 12.3014 0 14.5037 0 16.7704C0 20.0231 0.795027 23.2621 2.35686 26.3858C3.6129 28.8967 5.36761 31.3432 7.57863 33.6698C11.3562 37.6413 15.3172 40.0693 16.4415 40.719C16.7661 40.9079 17.1331 41 17.4953 41C17.8622 41 18.2245 40.9079 18.5491 40.719C19.6734 40.0693 23.6344 37.6413 27.412 33.6698C29.623 31.3478 31.3777 28.8967 32.6337 26.3858C34.205 23.2667 35 20.0324 35 16.775C35 14.5083 34.5343 12.306 33.6169 10.2327Z" fill="#FF6440"/>
</svg>