<svg width="22" height="22" viewBox="0 0 22 22" fill="none" xmlns="http://www.w3.org/2000/svg">
<path d="M5.75 8.86719C5.75 9.16556 5.86853 9.4517 6.0795 9.66268C6.29048 9.87366 6.57663 9.99219 6.875 9.99219C7.17337 9.99219 7.45952 9.87366 7.6705 9.66268C7.88147 9.4517 8 9.16556 8 8.86719C8 8.56882 7.88147 8.28267 7.6705 8.07169C7.45952 7.86071 7.17337 7.74219 6.875 7.74219C6.57663 7.74219 6.29048 7.86071 6.0795 8.07169C5.86853 8.28267 5.75 8.56882 5.75 8.86719ZM14 8.86719C14 9.16556 14.1185 9.4517 14.3295 9.66268C14.5405 9.87366 14.8266 9.99219 15.125 9.99219C15.4234 9.99219 15.7095 9.87366 15.9205 9.66268C16.1315 9.4517 16.25 9.16556 16.25 8.86719C16.25 8.56882 16.1315 8.28267 15.9205 8.07169C15.7095 7.86071 15.4234 7.74219 15.125 7.74219C14.8266 7.74219 14.5405 7.86071 14.3295 8.07169C14.1185 8.28267 14 8.56882 14 8.86719ZM11 0.5C5.20156 0.5 0.5 5.20156 0.5 11C0.5 16.7984 5.20156 21.5 11 21.5C16.7984 21.5 21.5 16.7984 21.5 11C21.5 5.20156 16.7984 0.5 11 0.5ZM17.1641 17.1641C16.3625 17.9656 15.4297 18.5938 14.3914 19.0344C13.3203 19.4891 12.1789 19.7188 11 19.7188C9.82109 19.7188 8.67969 19.4891 7.60625 19.0344C6.56797 18.5961 5.63516 17.9656 4.83359 17.1641C4.03203 16.3625 3.40391 15.4297 2.96328 14.3914C2.51094 13.3203 2.28125 12.1789 2.28125 11C2.28125 9.82109 2.51094 8.67969 2.96562 7.60625C3.40391 6.56797 4.03437 5.63516 4.83594 4.83359C5.6375 4.03203 6.57031 3.40391 7.60859 2.96328C8.67969 2.51094 9.82109 2.28125 11 2.28125C12.1789 2.28125 13.3203 2.51094 14.3937 2.96562C15.432 3.40391 16.3648 4.03437 17.1664 4.83594C17.968 5.6375 18.5961 6.57031 19.0367 7.60859C19.4891 8.67969 19.7188 9.82109 19.7188 11C19.7188 12.1789 19.4891 13.3203 19.0344 14.3937C18.5961 15.432 17.9656 16.3648 17.1641 17.1641ZM11 11.4922C8.99609 11.4922 7.35313 13.0695 7.25 15.0453C7.24531 15.1531 7.32969 15.2422 7.4375 15.2422H8.56484C8.66328 15.2422 8.74766 15.1672 8.75469 15.0687C8.84375 13.9086 9.81641 12.9922 11 12.9922C12.1836 12.9922 13.1586 13.9086 13.2453 15.0687C13.2523 15.1672 13.3367 15.2422 13.4352 15.2422H14.5625C14.6703 15.2422 14.7547 15.1531 14.75 15.0453C14.6469 13.0695 13.0039 11.4922 11 11.4922Z" fill="#D9452B"/>
</svg>