<svg width="27" height="22" viewBox="0 0 27 22" fill="none" xmlns="http://www.w3.org/2000/svg">
<path fill-rule="evenodd" clip-rule="evenodd" d="M25.319 6.89461H19.921V1.68196C19.921 1.3058 19.6152 1 19.239 1H7.76196C7.3858 1 7.08 1.3058 7.08 1.68196V6.89592L1.68196 6.89464C1.3058 6.89464 1 7.20044 1 7.5766V20.1323C1 20.5084 1.3058 20.8142 1.68196 20.8142H25.318C25.6942 20.8142 26 20.5084 26 20.1323V7.5766C26.0013 7.20044 25.6952 6.89461 25.319 6.89461ZM24.6371 8.25856V16.8542H19.921V8.25856H24.6371ZM12.2451 15.8895V19.3697L14.7555 19.3684V15.8895H12.2451ZM8.44392 2.36395H18.5557V19.4516L16.1196 19.4504V15.2076C16.1196 14.8314 15.8138 14.5256 15.4376 14.5256H11.5634C11.1872 14.5256 10.8814 14.8314 10.8814 15.2076V19.4504H8.44395L8.44392 2.36395ZM7.07997 16.8542V8.25856L2.36389 8.25853V16.8554L7.07997 16.8542ZM2.36389 18.2194H7.07997V19.4515L2.36389 19.4503V18.2194ZM19.9213 18.2181V19.4503H24.6374V18.2181H19.9213Z" fill="black" fill-opacity="0.65"/>
<path fill-rule="evenodd" clip-rule="evenodd" d="M11.5076 11.1924V9.82847L10.1437 9.82975C9.76753 9.82975 9.46173 9.52395 9.46173 9.14779V6.45702C9.46173 6.08086 9.76753 5.77506 10.1437 5.77506H11.5076V4.41111C11.5076 4.03494 11.8134 3.72915 12.1896 3.72915H14.8791C15.2553 3.72915 15.5611 4.03495 15.5611 4.41111V5.77506H16.925C17.3012 5.77506 17.607 6.08086 17.607 6.45702V9.14651C17.607 9.52267 17.3012 9.82847 16.925 9.82847H15.5611V11.1924C15.5611 11.5686 15.2553 11.8744 14.8791 11.8744H12.1896C11.8134 11.8744 11.5076 11.5686 11.5076 11.1924ZM12.1896 7.13898H10.8257V8.46583H12.1896C12.5658 8.46583 12.8716 8.77163 12.8716 9.14779V10.5117H14.1972V9.14779C14.1972 8.77163 14.503 8.46583 14.8791 8.46583H16.2431V7.13898H14.8791C14.503 7.13898 14.1972 6.83318 14.1972 6.45702V5.09307H12.8716V6.45702C12.8716 6.83319 12.5658 7.13898 12.1896 7.13898Z" fill="black" fill-opacity="0.65"/>
<path d="M20.021 6.79461H25.319C25.7502 6.79461 26.1013 7.14498 26.1 7.5766C26.1 7.57671 26.1 7.57683 26.1 7.57694M20.021 6.79461L1.68196 6.89464C1.3058 6.89464 1 7.20044 1 7.5766V20.1323C1 20.5084 1.3058 20.8142 1.68196 20.8142H25.318C25.6942 20.8142 26 20.5084 26 20.1323V7.5766L26.1 7.57694M20.021 6.79461V1.68196C20.021 1.25057 19.6704 0.9 19.239 0.9H7.76196C7.33057 0.9 6.98 1.25057 6.98 1.68196V6.79589L1.68198 6.79464H1.68196C1.25057 6.79464 0.9 7.14521 0.9 7.5766V20.1323C0.9 20.5637 1.25057 20.9142 1.68196 20.9142H25.318C25.7494 20.9142 26.1 20.5637 26.1 20.1323L26.1 7.57694M20.021 6.79461L26.1 7.57694M11.4076 9.92857V11.1924C11.4076 11.6238 11.7582 11.9744 12.1896 11.9744H14.8791C15.3105 11.9744 15.6611 11.6238 15.6611 11.1924V9.92847H16.925C17.3564 9.92847 17.707 9.5779 17.707 9.14651V6.45702C17.707 6.02564 17.3564 5.67506 16.925 5.67506H15.6611V4.41111C15.6611 3.97972 15.3105 3.62915 14.8791 3.62915H12.1896C11.7582 3.62915 11.4076 3.97972 11.4076 4.41111V5.67506H10.1437C9.71231 5.67506 9.36173 6.02563 9.36173 6.45702V9.14779C9.36173 9.57918 9.7123 9.92975 10.1437 9.92975H10.1438L11.4076 9.92857ZM24.5371 8.35856V16.7542H20.021V8.35856H24.5371ZM14.6555 19.2685L12.3451 19.2697V15.9895H14.6555V19.2685ZM8.54392 2.46395H18.4557V19.3516L16.2196 19.3504V15.2076C16.2196 14.7762 15.869 14.4256 15.4376 14.4256H11.5634C11.132 14.4256 10.7814 14.7762 10.7814 15.2076V19.3504H8.54395L8.54392 2.46395ZM6.97997 8.35856V16.7542L2.46389 16.7554V8.35853L6.97997 8.35856ZM2.46389 18.3194H6.97997V19.3515L2.46389 19.3503V18.3194ZM20.0213 19.3503V18.3181H24.5374V19.3503H20.0213ZM10.9257 7.23898H12.1896C12.621 7.23898 12.9716 6.88842 12.9716 6.45702V5.19307H14.0972V6.45702C14.0972 6.88841 14.4477 7.23898 14.8791 7.23898H16.1431V8.36583H14.8791C14.4477 8.36583 14.0972 8.7164 14.0972 9.14779V10.4117H12.9716V9.14779C12.9716 8.7164 12.621 8.36583 12.1896 8.36583H10.9257V7.23898Z" stroke="black" stroke-opacity="0.65" stroke-width="0.2"/>
</svg>