<svg width="18" height="20" viewBox="0 0 18 20" fill="none" xmlns="http://www.w3.org/2000/svg">
<path d="M17.1211 15.8969C16.6782 14.8469 16.0407 13.9047 15.2321 13.0961C14.4235 12.2875 13.4813 11.6523 12.4313 11.207C12.4219 11.2023 12.4125 11.2 12.4032 11.1953C13.8633 10.1406 14.8125 8.42266 14.8125 6.48438C14.8125 3.27344 12.211 0.671875 9.00005 0.671875C5.78911 0.671875 3.18755 3.27344 3.18755 6.48438C3.18755 8.42266 4.13677 10.1406 5.59692 11.1977C5.58755 11.2023 5.57817 11.2047 5.5688 11.2094C4.5188 11.6523 3.57661 12.2875 2.76802 13.0984C1.95942 13.907 1.32427 14.8492 0.878954 15.8992C0.443016 16.9258 0.210985 18.0156 0.187548 19.1359C0.185204 19.2414 0.269579 19.3281 0.375048 19.3281H1.7813C1.88442 19.3281 1.96645 19.2461 1.9688 19.1453C2.01567 17.3359 2.74223 15.6414 4.02661 14.357C5.35552 13.0281 7.12036 12.2969 9.00005 12.2969C10.8797 12.2969 12.6446 13.0281 13.9735 14.357C15.2579 15.6414 15.9844 17.3359 16.0313 19.1453C16.0336 19.2484 16.1157 19.3281 16.2188 19.3281H17.625C17.7305 19.3281 17.8149 19.2414 17.8125 19.1359C17.7891 18.0156 17.5571 16.9258 17.1211 15.8969ZM9.00005 10.5156C7.92427 10.5156 6.91177 10.0961 6.15005 9.33438C5.38833 8.57266 4.9688 7.56016 4.9688 6.48438C4.9688 5.40859 5.38833 4.39609 6.15005 3.63437C6.91177 2.87266 7.92427 2.45312 9.00005 2.45312C10.0758 2.45312 11.0883 2.87266 11.85 3.63437C12.6118 4.39609 13.0313 5.40859 13.0313 6.48438C13.0313 7.56016 12.6118 8.57266 11.85 9.33438C11.0883 10.0961 10.0758 10.5156 9.00005 10.5156Z" fill="#595959"/>
</svg>