<svg width="12" height="12" viewBox="0 0 12 12" fill="none" xmlns="http://www.w3.org/2000/svg">
<path fill-rule="evenodd" clip-rule="evenodd" d="M11.4789 10.7573L8.82931 8.10899C9.52629 7.25295 9.94397 6.16157 9.94397 4.97192C9.94397 2.22537 7.71853 -6.38962e-05 4.97198 -6.38962e-05C2.22543 -6.38962e-05 0 2.22537 0 4.97192C0 7.71847 2.22543 9.9439 4.97198 9.9439C6.15647 9.9439 7.24397 9.53011 8.09741 8.8383L10.747 11.4879C10.8478 11.5887 10.9797 11.6392 11.1129 11.6392C11.2448 11.6392 11.378 11.5887 11.4789 11.4879C11.6806 11.2861 11.6806 10.959 11.4789 10.7573ZM6.54439 8.69606C6.04655 8.90683 5.51767 9.01287 4.97198 9.01287C4.42629 9.01287 3.89741 8.90554 3.39956 8.69606C2.91853 8.49304 2.48663 8.2008 2.11422 7.82968C1.7431 7.45856 1.45086 7.02537 1.24784 6.54433C1.03706 6.04649 0.93103 5.51761 0.93103 4.97192C0.93103 4.42623 1.03836 3.89735 1.24784 3.39951C1.45086 2.91847 1.7431 2.48657 2.11422 2.11416C2.48534 1.74304 2.91853 1.4508 3.39956 1.24778C3.89741 1.037 4.42629 0.93097 4.97198 0.93097C5.51767 0.93097 6.04655 1.0383 6.54439 1.24778C7.02543 1.4508 7.45732 1.74304 7.82974 2.11416C8.20086 2.48528 8.4931 2.91718 8.69612 3.39951C8.90689 3.89735 9.01293 4.42623 9.01293 4.97192C9.01293 5.51761 8.9056 6.04649 8.69612 6.54433C8.4931 7.02537 8.20086 7.45726 7.82974 7.82968C7.45732 8.2008 7.02543 8.49175 6.54439 8.69606Z" fill="black" fill-opacity="0.25"/>
</svg>